<svg xmlns="http://www.w3.org/2000/svg" aria-hidden="true" overflow="hidden" style="position:absolute;width:0;height:0"><defs><symbol id="icon-cow" viewBox="0 0 31 32"><path d="M6.002.778c-.254.219-.98 1.732-1.24 2.558-.31 1.024-.415 1.792-.374 2.851.056 1.514.437 2.662 1.275 3.861.219.315.395.585.395.607 0 .015-.134.029-.303.029-.726 0-2.086.241-3.128.555C.972 11.736 0 12.606 0 13.579c0 .343.31.928.641 1.228.641.578 2.043 1.126 3.55 1.389.521.095 2.071.256 2.416.264.063 0 .085.336.085 1.44 0 .951.035 1.689.106 2.142.253 1.623 1.042 3.342 2.084 4.555l.36.417-.24.387c-.352.548-.486.965-.528 1.586-.106 1.492.823 2.815 2.621 3.744 3.422 1.776 8.741 1.082 10.735-1.404.972-1.214 1.085-2.603.317-3.861l-.24-.388.43-.519c.803-.965 1.324-1.93 1.718-3.152.331-1.038.458-2.04.458-3.626 0-.724.021-1.323.056-1.323.324-.008 1.881-.176 2.374-.264 1.514-.263 2.889-.804 3.55-1.389.331-.3.641-.885.641-1.228 0-1.083-1.098-1.96-3.142-2.486-.669-.176-1.93-.387-2.543-.424l-.289-.023.317-.438c.394-.534.887-1.571 1.078-2.252.535-1.967.204-4.255-.944-6.441-.48-.905-.811-1.117-1.198-.759-.148.138-.212.329-.352 1.016-.437 2.186-1.247 3.92-2.43 5.199l-.521.571H9.966l-.465-.505c-1.155-1.271-1.994-3.07-2.43-5.264-.141-.688-.204-.877-.352-1.016-.233-.212-.458-.205-.718.022zm.901 4.336c.374.819.839 1.586 1.387 2.295l.437.563-.457.344c-.43.329-.831.797-1.142 1.33l-.133.242-.338-.461c-1.155-1.594-1.444-3.546-.831-5.571.296-.98.289-.973.556-.125.127.409.367 1.031.521 1.382zm18.335-1.543c.255.709.403 1.526.403 2.378l-.001.09v-.005c0 1.331-.352 2.456-1.091 3.465l-.331.453-.247-.417a4.425 4.425 0 0 0-1.22-1.344l-.013-.009c-.19-.124-.337-.248-.337-.263 0-.022.133-.19.303-.373.782-.87 1.62-2.435 2.036-3.779.126-.418.253-.761.274-.761s.127.256.225.562zM21.64 8.916c.782.329 1.528 1.271 1.648 2.069.063.439.211.717.401.761.085.015.669.066 1.296.109 2.225.147 3.979.622 4.727 1.272.345.307.31.563-.105.878-.831.629-2.627 1.104-4.459 1.185-1.212.051-1.465.086-1.628.255-.119.125-.133.256-.133 1.579 0 1.792-.092 2.823-.317 3.656-.317 1.133-.944 2.34-1.676 3.196l-.303.351-.627-.373a7.624 7.624 0 0 0-2.272-.933l-.053-.01c-2.67-.636-5.622-.248-7.607 1.002l-.458.292-.289-.343c-.394-.461-1.014-1.448-1.261-2.003-.542-1.258-.704-2.282-.704-4.534 0-2.186.112-2.026-1.507-2.113-2.071-.11-3.65-.483-4.643-1.111-.733-.468-.612-.885.409-1.375.979-.476 2.324-.76 4.191-.877 1.451-.095 1.486-.117 1.62-.819.197-1.06.979-1.937 1.966-2.216.246-.073 1.627-.087 5.853-.08l5.53.014.401.169zm-3.96 15.135c1.726.424 3.015 1.213 3.572 2.193.134.227.19.461.218.819.029.446.008.555-.162.921-.782 1.661-3.656 2.756-6.579 2.508-3.515-.292-5.826-2.252-4.917-4.175.493-1.038 2.162-2.032 3.923-2.326.289-.043.578-.095.634-.11s.691-.015 1.41 0c.978.023 1.45.066 1.901.169z"/><path d="M10.693 12.579c-.437.147-.733.337-1.127.732-.346.329-.374.716-.085.95.268.219.521.19.845-.095.409-.358.726-.504 1.121-.504.394-.008.697.131 1.119.504.324.285.578.314.846.095.141-.117.183-.212.183-.432 0-.227-.049-.329-.297-.578-.697-.701-1.732-.972-2.606-.673zm8.213-.007c-.45.168-1.028.548-1.26.833-.226.278-.233.592 0 .827.232.248.514.233.852-.044.831-.688 1.451-.709 2.219-.073.197.169.422.3.493.3.345 0 .627-.307.627-.673 0-.233-.585-.775-1.113-1.031-.585-.285-1.282-.336-1.817-.138zm-7.191 13.534c-.204.197-.275.483-.169.709.078.183.197.256.683.387.219.058.31.131.387.314.099.242.106.242.649.264l.542.022v-.205c-.007-.292-.169-.716-.381-1.008-.246-.337-.676-.556-1.162-.6-.331-.029-.415-.015-.549.118zm6.727-.052c-.352.095-.859.571-1 .943-.07.196-.118.423-.134.658v.008c-.014.314.014.387.183.541.415.365.965.08.965-.505 0-.285.211-.483.585-.555.394-.073.535-.233.542-.607 0-.489-.437-.68-1.142-.483z"/></symbol><symbol id="icon-eva_menu-fill-1" viewBox="0 0 32 32"><path fill="var(--color1, #fff)" d="M26.733 14H5.267c-.7 0-1.267.425-1.267.95v.1c0 .525.567.95 1.267.95h21.466c.7 0 1.267-.425 1.267-.95v-.1c0-.525-.567-.95-1.267-.95zm0 6H5.267c-.7 0-1.267.425-1.267.95v.1c0 .525.567.95 1.267.95h21.466c.7 0 1.267-.425 1.267-.95v-.1c0-.525-.567-.95-1.267-.95zm0-12H5.267C4.567 8 4 8.425 4 8.95v.1c0 .525.567.95 1.267.95h21.466c.7 0 1.267-.425 1.267-.95v-.1c0-.525-.567-.95-1.267-.95z"/></symbol><symbol id="icon-icecream" viewBox="0 0 34 32"><path fill="#f8d24e" style="fill: var(--color1, #f8d24e)" d="M17.184 14.109c1.613-4.366-1.728-6.756-3.942-8.327-0.424-0.321-0.847-0.621-1.19-0.895-0.911-0.771-1.486-1.915-1.486-3.194 0-0.398 0.056-0.783 0.16-1.147l-0.007 0.029c0.010-0.036 0.016-0.078 0.016-0.12 0-0.22-0.157-0.404-0.364-0.446l-0.003-0.001c-0.027-0.006-0.059-0.009-0.091-0.009-0.055 0-0.109 0.010-0.158 0.028l0.003-0.001c-0.787 0.315-1.466 0.727-2.064 1.23l0.011-0.009c-1.157 0.896-1.897 2.285-1.901 3.846v0.001c-0.418 0.328-0.787 0.713-1.096 1.144-0.508 0.685-0.813 1.547-0.813 2.48 0 0.071 0.002 0.141 0.005 0.211l-0-0.010c-1.060 0.974-1.723 2.367-1.723 3.915 0 0.379 0.040 0.75 0.115 1.106l-0.006-0.035c-0.419 0.256-0.694 0.711-0.694 1.23 0 0.138 0.020 0.272 0.056 0.399l-0.002-0.010c0.176 0.608 0.728 1.046 1.382 1.046 0.004 0 0.009-0 0.013-0h0.029v2.483c0 0 0 0.001 0 0.002 0 0.524 0.425 0.949 0.949 0.949 0.001 0 0.002 0 0.004 0h0.741l1.208 10.429c0.053 0.477 0.454 0.845 0.94 0.845 0.001 0 0.003 0 0.004 0h5.021c0.488-0.001 0.89-0.367 0.949-0.84l0-0.005 1.207-10.429h0.741c0.525-0.001 0.95-0.425 0.952-0.95v-2.484h0.029c0.798-0 1.445-0.648 1.445-1.446 0-0.198-0.040-0.387-0.112-0.559l0.004 0.010c-0.072-0.177-0.18-0.336-0.316-0.47l-0.013 0.004zM6.315 6.188c0.61 2.285 2.964 3.183 5.111 3.987 0.070 0.045 0.155 0.071 0.247 0.071 0.255 0 0.461-0.207 0.461-0.461 0-0.227-0.164-0.415-0.379-0.454l-0.003-0c-2.312-0.875-4.493-1.689-4.657-4.024-0.005-0.071-0.007-0.153-0.007-0.236 0-1.267 0.605-2.393 1.542-3.105l0.010-0.007c0.323-0.267 0.668-0.505 1.033-0.709-0.011 0.131-0.018 0.285-0.018 0.439s0.006 0.308 0.019 0.459l-0.001-0.020c0.106 1.401 0.775 2.628 1.779 3.468l0.008 0.006c0.351 0.3 0.787 0.608 1.27 0.937 1.114 0.798 2.38 1.689 3.184 2.897 0.503 0.717 0.803 1.607 0.803 2.568 0 0.62-0.125 1.211-0.352 1.748l0.011-0.030h-1.871c-3.858 0-8.291-1.064-9.167-4.045-0.082-0.279-0.13-0.6-0.13-0.932 0-1.005 0.434-1.908 1.126-2.532l0.003-0.003-0.020-0.021zM9.787 20.583l1.415 1.41-1.415 1.411-1.415-1.419 1.415-1.401zM13.030 24.285l-1.168 1.165-1.415-1.411 1.415-1.406 1.228 1.221-0.059 0.43zM9.787 27.52l-1.415-1.411 1.415-1.41 1.415 1.41-1.415 1.411zM9.139 24.049l-1.414 1.411-1.176-1.174-0.051-0.422 1.227-1.221 1.415 1.406zM7.074 26.109l-0.284 0.283-0.072-0.642 0.355 0.359zM6.925 27.554l0.8-0.798 1.555 1.563c0.008 0.031 0.017 0.062 0.029 0.093h-2.287l-0.098-0.857zM11.854 26.755l0.8 0.798-0.098 0.845h-2.349l1.647-1.642zM12.786 26.393l-0.284-0.284 0.36-0.359-0.076 0.642zM13.208 22.702l-0.707-0.718 0.899-0.895-0.19 1.613zM11.85 21.342l-1.342-1.334h2.684l-1.341 1.334zM7.721 21.342l-1.343-1.334h2.685l-1.342 1.334zM12.294 30.361h-5.018c-0.015-0.002-0.028-0.014-0.029-0.029l-0-0-0.118-1.013h5.318l-0.115 1.013c-0.002 0.017-0.016 0.029-0.033 0.029-0 0-0 0-0 0v0h-0.005zM16.177 15.651h-1.474c-0.013-0.001-0.027-0.002-0.042-0.002-0.255 0-0.461 0.206-0.463 0.46v0c0 0 0 0 0 0.001 0 0.254 0.206 0.46 0.46 0.46 0.016 0 0.032-0.001 0.047-0.002l-0.002 0h0.525v2.483c-0.002 0.017-0.016 0.029-0.033 0.029-0 0-0 0-0 0v0h-10.828c-0 0-0 0-0 0-0.017 0-0.031-0.013-0.033-0.029l-0-0v-2.483h8.387c0.234-0.024 0.416-0.22 0.416-0.459 0-0.119-0.045-0.227-0.118-0.308l0 0c-0.075-0.082-0.179-0.138-0.296-0.149l-0.002-0h-9.315c-0.014 0.001-0.029 0.002-0.045 0.002-0.29 0-0.525-0.234-0.527-0.524v-0c0-0 0-0.001 0-0.002 0-0.288 0.234-0.522 0.522-0.522 0.018 0 0.035 0.001 0.053 0.003l-0.002-0h0.961c0.235-0.023 0.417-0.219 0.418-0.458v-0c-0-0.239-0.183-0.435-0.416-0.457l-0.002-0h-0.846c-0.050-0.252-0.079-0.542-0.079-0.839 0-1.078 0.378-2.067 1.008-2.844l-0.007 0.008c0.296 0.92 1.059 2.179 2.964 3.18 1.79 0.933 4.162 1.41 7.045 1.41h1.693c0.014-0.001 0.030-0.002 0.046-0.002 0.213 0 0.397 0.127 0.48 0.309l0.001 0.003c0.029 0.063 0.045 0.136 0.045 0.213 0 0.288-0.234 0.522-0.522 0.522-0.018 0-0.035-0.001-0.053-0.003l0.002 0h0.029zM19.859 28.392l-0.342 0.525 0.008 0.004 0.335-0.529zM23.54 28.568l0.627-0.013-0.017-0.724-0.714 0.12 0.105 0.617zM23.583 30.495l0.16 0.606 0.477-0.126-0.011-0.493-0.627 0.013zM18.752 30.588l0.141-0.611h-0.004l-0.136 0.611zM16.367 29.523v0zM15.505 27.565l0.626 0.003v-0.003h-0.626zM15.804 26.196l-0.562-0.277v0.002l0.562 0.275zM17.724 24.557l0.223 0.586 0.002-0.001-0.224-0.585zM23.877 24.397l0.624 0.049 0.042-0.529-0.515-0.127-0.151 0.607zM23.724 26.361l-0.116 0.615 0.686 0.131 0.055-0.697-0.625-0.048zM22.055 25.558c-0.94 0-1.731 0.1-2.307 0.354-0.296 0.13-0.564 0.313-0.76 0.572-0.187 0.244-0.299 0.554-0.299 0.89 0 0.005 0 0.011 0 0.016v-0.001h1.253c0-0.073 0.017-0.115 0.044-0.149 0.033-0.042 0.106-0.11 0.267-0.181 0.337-0.148 0.916-0.248 1.802-0.248v-1.253zM18.688 27.389c0 0.644 0.289 1.176 0.829 1.528l0.683-1.049c-0.185-0.121-0.259-0.259-0.259-0.478h-1.253zM19.524 28.921c0.511 0.323 1.187 0.445 1.944 0.445v-1.253c-0.654 0-1.052-0.11-1.274-0.251l-0.669 1.058zM21.468 29.367c0.743 0 1.469-0.061 2.178-0.18l-0.21-1.235c-0.585 0.103-1.259 0.163-1.947 0.163-0.007 0-0.015 0-0.022-0h0.001v1.253zM22.915 28.583l0.042 1.927 1.253-0.028-0.043-1.927-1.252 0.028zM23.424 29.89c-0.716 0.189-1.506 0.285-2.372 0.285v1.252c0.96 0 1.858-0.107 2.691-0.327l-0.319-1.211zM21.053 30.175c-0.884 0-1.6-0.070-2.159-0.199l-0.281 1.221c0.681 0.157 1.499 0.23 2.44 0.23v-1.252zM18.889 29.976c-0.598-0.133-1.029-0.275-1.317-0.416l-0.55 1.125c0.413 0.202 0.952 0.371 1.594 0.514l0.273-1.223zM17.572 29.56c-0.305-0.147-0.568-0.319-0.806-0.518l0.006 0.005-0.81 0.955c0.313 0.265 0.668 0.493 1.061 0.684l0.549-1.125zM16.772 29.045c-0.426-0.36-0.644-0.83-0.64-1.476l-1.253-0.006c-0.005 0.985 0.352 1.819 1.085 2.438l0.808-0.957zM16.132 27.565c0-0.421 0.082-0.781 0.236-1.095l-1.126-0.551c-0.23 0.468-0.364 1.018-0.364 1.6 0 0.016 0 0.032 0 0.048l-0-0.002h1.252zM16.367 26.472c0.285-0.579 0.788-1.029 1.581-1.331l-0.445-1.171c-1.034 0.392-1.811 1.036-2.26 1.948l1.124 0.553zM17.95 25.142c0.833-0.32 1.763-0.485 2.796-0.485v-1.252c-1.168 0-2.252 0.186-3.245 0.568l0.45 1.17zM20.746 24.657c1.054 0 2.047 0.118 2.981 0.349l0.301-1.215c-0.966-0.245-2.074-0.386-3.216-0.386-0.023 0-0.046 0-0.069 0h0.004v1.253zM23.253 24.349l-0.152 1.963 1.249 0.098 0.152-1.964-1.248-0.097zM23.842 25.746c-0.533-0.112-1.149-0.18-1.78-0.189l-0.006-0v1.253c0.44 0 0.957 0.053 1.553 0.166l0.233-1.229zM29.952 26.746l-0.003 0.627 0.637 0.003-0.007-0.637-0.627 0.007zM29.683 25.933l-0.426 0.459 0.006 0.005 0.421-0.463zM28.124 25.994l0.434 0.452 0.004-0.005-0.438-0.447zM27.745 26.734l-0.618-0.101-0.12 0.723 0.733 0.004 0.003-0.627zM32.349 30.073l0.379 0.499 0.225-0.171 0.021-0.281-0.625-0.047zM30.998 30.575l-0.135-0.612-0.003 0.001 0.138 0.611zM26.301 30.403l-0.213 0.589 0.005 0.002 0.208-0.591zM25.231 29.835l-0.389 0.491 0.008 0.006 0.381-0.497zM24.515 28.936l-0.562 0.278 0.002 0.003 0.56-0.28zM25.249 25.138v0zM30.973 24.459l0.25-0.574-0.006-0.003-0.244 0.577zM32.41 25.78l-0.563 0.274 0.002 0.003 0.561-0.278zM32.655 26.875l0.625 0.045 0.002-0.023v-0.023h-0.627zM32.582 27.884l-0.003 0.627 0.585 0.003 0.042-0.584-0.624-0.045zM27.622 27.859l0.003-0.627-0.817-0.003 0.208 0.79 0.605-0.16zM28.332 28.734l-0.309 0.545 0.003 0.002 0.306-0.547zM32.136 28.52v-0.626h-0.125l-0.115 0.048 0.241 0.578zM32.466 28.52l0.625 0.047 0.051-0.674h-0.675v0.627zM30.579 26.739c-0.005-0.453-0.109-0.939-0.475-1.271l-0.842 0.928c-0.007-0.007 0.008 0.002 0.025 0.056 0.019 0.057 0.037 0.153 0.039 0.301l1.253-0.013zM30.109 25.474c-0.328-0.305-0.76-0.406-1.185-0.406v1.253c0.244 0 0.318 0.059 0.333 0.071l0.852-0.918zM28.925 25.068c-0.467 0-0.9 0.147-1.24 0.479l0.877 0.894c0.068-0.067 0.168-0.12 0.362-0.12v-1.253zM27.689 25.542c-0.294 0.283-0.497 0.659-0.562 1.080l-0.001 0.011 1.236 0.203c0.020-0.154 0.091-0.289 0.195-0.39l0-0-0.867-0.904zM27.741 27.361l2.208 0.012 0.007-1.252-2.208-0.013-0.007 1.252zM31.971 29.575c-0.137 0.104-0.472 0.248-1.108 0.388l0.269 1.224c0.661-0.146 1.227-0.335 1.595-0.615l-0.756-0.997zM30.86 29.964c-0.525 0.127-1.129 0.202-1.75 0.205h-0.002v1.253c0.662 0 1.339-0.080 2.028-0.236l-0.276-1.221zM29.108 30.168c-0.59 0-1.076-0.028-1.464-0.080l-0.168 1.241c0.461 0.062 1.006 0.092 1.631 0.092v-1.253zM27.645 30.088c-0.381-0.051-0.758-0.143-1.135-0.275l-0.417 1.181c0.455 0.16 0.917 0.273 1.384 0.335l0.168-1.241zM26.515 29.815c-0.345-0.121-0.644-0.282-0.911-0.483l0.009 0.006-0.762 0.994c0.356 0.274 0.772 0.492 1.238 0.66l0.427-1.177zM25.619 29.343c-0.227-0.185-0.411-0.414-0.539-0.675l-0.005-0.012-1.12 0.56c0.22 0.441 0.514 0.815 0.887 1.11l0.777-0.982zM25.076 28.659c-0.131-0.267-0.211-0.61-0.211-1.050h-1.253c0 0.588 0.105 1.129 0.34 1.605l1.123-0.556zM24.866 27.608c0-0.44 0.080-0.829 0.23-1.176l-1.149-0.499c-0.211 0.482-0.334 1.043-0.334 1.634 0 0.014 0 0.028 0 0.043l-0-0.002h1.253zM25.096 26.433c0.158-0.364 0.351-0.632 0.57-0.827l-0.834-0.936c-0.376 0.335-0.668 0.764-0.885 1.264l1.149 0.499zM25.666 25.605c0.674-0.6 1.7-0.947 3.179-0.947v-1.253c-1.659 0-3.030 0.39-4.013 1.266l0.834 0.935zM28.845 24.658c0.664 0 1.29 0.126 1.884 0.378l0.489-1.154c-0.693-0.302-1.501-0.478-2.35-0.478-0.008 0-0.016 0-0.025 0h0.001v1.253zM30.723 25.033c0.555 0.242 0.913 0.584 1.125 1.021l1.126-0.547c-0.359-0.739-0.958-1.276-1.75-1.622l-0.501 1.149zM31.849 26.057c0.117 0.237 0.179 0.505 0.179 0.817h1.253c0-0.487-0.101-0.947-0.31-1.371l-1.123 0.554zM32.030 26.829l-0.073 1.009 1.25 0.091 0.073-1.009-1.25-0.091zM32.585 27.257l-4.96-0.024-0.007 1.253 4.96 0.024 0.007-1.253zM27.016 28.019c0.147 0.555 0.504 0.976 1.007 1.26l0.616-1.091c-0.248-0.14-0.362-0.302-0.412-0.488l-1.211 0.319zM28.025 29.281c0.509 0.284 1.144 0.397 1.853 0.397v-1.252c-0.595 0-0.99-0.099-1.241-0.239l-0.611 1.094zM29.878 29.678c0.762 0 1.599-0.206 2.499-0.58l-0.482-1.156c-0.805 0.335-1.474 0.484-2.016 0.484v1.252zM32.135 29.146h0.331v-1.252h-0.33v1.252zM31.841 28.473l-0.116 1.554 1.25 0.093 0.116-1.553-1.25-0.093z"></path></symbol><symbol id="icon-weight" viewBox="0 0 32 32"><path d="M14.178.547c-3.974.589-7.247 2.796-8.452 5.685-.384.913-.487 1.474-.487 2.573.007.812.036 1.114.163 1.552.258.862.443 1.301.827 1.92l.356.574-.4.489c-3.154 3.924-3.501 9.444-.871 13.793.982 1.631 2.586 3.235 4.151 4.169l.466.273 12.743-.108.302-.165c1.057-.596 2.548-1.926 3.383-3.004a12.51 12.51 0 0 0 2.413-5.546l.01-.074c.118-.74.118-2.933-.007-3.63-.377-2.148-1.182-3.988-2.452-5.62-.244-.309-.436-.568-.436-.589 0-.014.133-.237.288-.489a7.777 7.777 0 0 0 .864-1.962c.199-.719.199-2.516 0-3.235-.709-2.551-2.836-4.679-5.843-5.851-.843-.331-2.284-.683-3.214-.797-.864-.101-2.999-.08-3.804.043zm4.498 1.171c3.945.769 6.834 3.184 7.365 6.16.118.668.044 1.804-.155 2.436-.2.619-.569 1.345-1.004 1.963-.178.252-.325.54-.325.633s.155.338.377.582c1.846 2.048 2.821 4.614 2.821 7.388-.007 3.156-1.219 5.923-3.553 8.093-.399.373-.968.841-1.271 1.042l-.554.373-12.211.051-.473-.302c-1.714-1.114-3.258-2.954-4.115-4.908-1.078-2.472-1.189-5.34-.31-7.913.466-1.337 1.086-2.429 2.031-3.58.385-.46.562-.733.562-.862 0-.108-.192-.46-.444-.827-.886-1.287-1.248-2.717-1.034-4.068.222-1.365.842-2.487 1.987-3.601 1.493-1.444 3.576-2.4 6.021-2.76 1.012-.151 3.25-.093 4.284.1z"/><path d="M14.509 2.983c-3.028.496-5.4 2.178-6.175 4.385-.178.496-.207.69-.207 1.401s.029.907.207 1.402c.11.316.317.756.458.978.384.618.554.64 1.316.18a11.719 11.719 0 0 1 3.727-1.474l.078-.014c.916-.187 2.674-.258 3.671-.143 1.558.18 3.25.74 4.602 1.538.384.222.776.409.871.409.562 0 1.278-1.617 1.278-2.875 0-2.796-2.674-5.189-6.463-5.786-.805-.129-2.587-.129-3.362 0zm3.657 1.15c1.271.273 2.437.791 3.317 1.474 1.182.913 1.817 2.185 1.713 3.413-.036.489-.221 1.15-.332 1.222-.03.014-.444-.158-.916-.388a14.138 14.138 0 0 0-3.131-1.081l-.097-.018c-.687-.143-.975-.165-2.511-.158-1.515 0-1.832.022-2.489.158a13.283 13.283 0 0 0-3.196 1.099l.078-.035c-1.1.524-1.042.532-1.241-.116-.258-.84-.096-1.955.406-2.796.267-.445.997-1.186 1.529-1.552 1.012-.698 1.899-1.013 3.804-1.359.391-.071 2.564.029 3.066.137zm-1.203 9.271c-.207.26-.207.504.007.712.14.137.281.172.791.209a6.489 6.489 0 0 1 2.815.865l-.031-.017c.606.359 1.529 1.229 1.943 1.854.613.898 1.034 2.185 1.034 3.134 0 .331.03.431.185.574.236.237.547.237.776 0 .163-.165.169-.208.125-.912-.207-3.479-3.184-6.382-6.744-6.578l-.74-.043-.162.202z"/></symbol></defs></svg>

